<mxfile host="app.diagrams.net" agent="Mozilla/5.0 (X11; Linux x86_64) AppleWebKit/537.36 (KHTML, like Gecko) Chrome/130.0.0.0 YaBrowser/24.12.0.0 Safari/537.36" version="26.0.16">
  <diagram name="Page-1" id="2a216829-ef6e-dabb-86c1-c78162f3ba2b">
    <mxGraphModel dx="1713" dy="1611" grid="0" gridSize="10" guides="1" tooltips="1" connect="1" arrows="1" fold="1" page="0" pageScale="1" pageWidth="850" pageHeight="1100" background="light-dark(#ffffff, #121212)" math="0" shadow="0">
      <root>
        <mxCell id="0" />
        <mxCell id="1" parent="0" />
        <mxCell id="xB0domjlbj_kg_IO6vz--2" value="Магазин" style="swimlane;html=1;startSize=20;fontStyle=0;collapsible=0;horizontal=0;swimlaneLine=1;swimlaneFillColor=#ffffff;strokeWidth=2;whiteSpace=wrap;" parent="1" vertex="1">
          <mxGeometry x="140" y="-649" width="1161" height="669" as="geometry" />
        </mxCell>
        <mxCell id="xB0domjlbj_kg_IO6vz--77" value="Отдел доставки" style="text;html=1;strokeColor=none;fillColor=none;align=center;verticalAlign=middle;whiteSpace=wrap;rounded=0;rotation=-90;" parent="xB0domjlbj_kg_IO6vz--2" vertex="1">
          <mxGeometry x="-14" y="110" width="90" height="30" as="geometry" />
        </mxCell>
        <mxCell id="xB0domjlbj_kg_IO6vz--78" value="" style="swimlane;html=1;startSize=20;fontStyle=0;collapsible=0;horizontal=0;swimlaneLine=0;fillColor=none;whiteSpace=wrap;" parent="xB0domjlbj_kg_IO6vz--2" vertex="1">
          <mxGeometry x="20" y="261" width="1141" height="158" as="geometry" />
        </mxCell>
        <mxCell id="xB0domjlbj_kg_IO6vz--76" value="Сборка заказа" style="text;html=1;strokeColor=none;fillColor=none;align=center;verticalAlign=middle;whiteSpace=wrap;rounded=0;rotation=-90;" parent="xB0domjlbj_kg_IO6vz--78" vertex="1">
          <mxGeometry x="-46.88" y="70" width="123.75" height="30" as="geometry" />
        </mxCell>
        <mxCell id="xB0domjlbj_kg_IO6vz--72" value="Упаковка заказа" style="points=[[0.25,0,0],[0.5,0,0],[0.75,0,0],[1,0.25,0],[1,0.5,0],[1,0.75,0],[0.75,1,0],[0.5,1,0],[0.25,1,0],[0,0.75,0],[0,0.5,0],[0,0.25,0]];shape=mxgraph.bpmn.task2;whiteSpace=wrap;rectStyle=rounded;size=10;html=1;container=1;expand=0;collapsible=0;taskMarker=abstract;" parent="xB0domjlbj_kg_IO6vz--78" vertex="1">
          <mxGeometry x="220" y="63" width="70" height="44" as="geometry" />
        </mxCell>
        <mxCell id="uzLKEDRiPb4tRCJ2dRm6-14" value="&quot;сообщение об отсутствии курьеров &quot;" style="shape=mxgraph.bpmn.data2;labelPosition=center;verticalLabelPosition=bottom;align=center;verticalAlign=top;size=15;html=1;" vertex="1" parent="xB0domjlbj_kg_IO6vz--78">
          <mxGeometry x="329" y="-4" width="60" height="20" as="geometry" />
        </mxCell>
        <mxCell id="uzLKEDRiPb4tRCJ2dRm6-15" value="" style="edgeStyle=elbowEdgeStyle;fontSize=12;html=1;endFill=0;startFill=0;endSize=6;startSize=6;dashed=1;dashPattern=1 4;endArrow=none;startArrow=none;rounded=0;curved=1;" edge="1" parent="xB0domjlbj_kg_IO6vz--78">
          <mxGeometry width="160" relative="1" as="geometry">
            <mxPoint x="391" y="6" as="sourcePoint" />
            <mxPoint x="451" y="6" as="targetPoint" />
          </mxGeometry>
        </mxCell>
        <mxCell id="zkMpJKOp6QvyCTiO164W-53" value="Поиск свободного курьера" style="points=[[0.25,0,0],[0.5,0,0],[0.75,0,0],[1,0.25,0],[1,0.5,0],[1,0.75,0],[0.75,1,0],[0.5,1,0],[0.25,1,0],[0,0.75,0],[0,0.5,0],[0,0.25,0]];shape=mxgraph.bpmn.task2;whiteSpace=wrap;rectStyle=rounded;size=10;html=1;container=1;expand=0;collapsible=0;taskMarker=abstract;" parent="xB0domjlbj_kg_IO6vz--2" vertex="1">
          <mxGeometry x="80" y="100" width="70" height="40" as="geometry" />
        </mxCell>
        <mxCell id="zkMpJKOp6QvyCTiO164W-56" value="" style="edgeStyle=elbowEdgeStyle;fontSize=12;html=1;endArrow=blockThin;endFill=1;rounded=0;entryX=0.5;entryY=1;entryDx=0;entryDy=0;entryPerimeter=0;exitX=0;exitY=0.5;exitDx=0;exitDy=0;exitPerimeter=0;" parent="xB0domjlbj_kg_IO6vz--2" source="xB0domjlbj_kg_IO6vz--72" target="zkMpJKOp6QvyCTiO164W-53" edge="1">
          <mxGeometry width="160" relative="1" as="geometry">
            <mxPoint x="270" y="410" as="sourcePoint" />
            <mxPoint x="320" y="215" as="targetPoint" />
            <Array as="points">
              <mxPoint x="115" y="140" />
            </Array>
          </mxGeometry>
        </mxCell>
        <mxCell id="zkMpJKOp6QvyCTiO164W-57" value="" style="points=[[0.25,0.25,0],[0.5,0,0],[0.75,0.25,0],[1,0.5,0],[0.75,0.75,0],[0.5,1,0],[0.25,0.75,0],[0,0.5,0]];shape=mxgraph.bpmn.gateway2;html=1;verticalLabelPosition=bottom;labelBackgroundColor=#ffffff;verticalAlign=top;align=center;perimeter=rhombusPerimeter;outlineConnect=0;outline=none;symbol=none;gwType=exclusive;" parent="xB0domjlbj_kg_IO6vz--2" vertex="1">
          <mxGeometry x="180" y="100" width="45" height="40" as="geometry" />
        </mxCell>
        <mxCell id="zkMpJKOp6QvyCTiO164W-58" style="edgeStyle=none;curved=1;rounded=0;orthogonalLoop=1;jettySize=auto;html=1;exitX=1;exitY=0.5;exitDx=0;exitDy=0;exitPerimeter=0;entryX=0;entryY=0.5;entryDx=0;entryDy=0;entryPerimeter=0;fontSize=12;startSize=8;endSize=8;" parent="xB0domjlbj_kg_IO6vz--2" source="zkMpJKOp6QvyCTiO164W-53" target="zkMpJKOp6QvyCTiO164W-57" edge="1">
          <mxGeometry relative="1" as="geometry" />
        </mxCell>
        <mxCell id="zkMpJKOp6QvyCTiO164W-59" value="Ожидание освобождения курьера" style="points=[[0.25,0,0],[0.5,0,0],[0.75,0,0],[1,0.25,0],[1,0.5,0],[1,0.75,0],[0.75,1,0],[0.5,1,0],[0.25,1,0],[0,0.75,0],[0,0.5,0],[0,0.25,0]];shape=mxgraph.bpmn.task2;whiteSpace=wrap;rectStyle=rounded;size=10;html=1;container=1;expand=0;collapsible=0;taskMarker=abstract;" parent="xB0domjlbj_kg_IO6vz--2" vertex="1">
          <mxGeometry x="301" y="40" width="90" height="40" as="geometry" />
        </mxCell>
        <mxCell id="zkMpJKOp6QvyCTiO164W-61" value="" style="edgeStyle=elbowEdgeStyle;fontSize=12;html=1;endArrow=blockThin;endFill=1;rounded=0;entryX=0;entryY=0.5;entryDx=0;entryDy=0;entryPerimeter=0;exitX=0.5;exitY=0;exitDx=0;exitDy=0;exitPerimeter=0;" parent="xB0domjlbj_kg_IO6vz--2" source="uzLKEDRiPb4tRCJ2dRm6-4" target="zkMpJKOp6QvyCTiO164W-59" edge="1">
          <mxGeometry width="160" relative="1" as="geometry">
            <mxPoint x="250" y="215" as="sourcePoint" />
            <mxPoint x="125" y="85" as="targetPoint" />
            <Array as="points">
              <mxPoint x="265" y="35" />
            </Array>
          </mxGeometry>
        </mxCell>
        <mxCell id="zkMpJKOp6QvyCTiO164W-62" value="Выбор курьера" style="points=[[0.25,0,0],[0.5,0,0],[0.75,0,0],[1,0.25,0],[1,0.5,0],[1,0.75,0],[0.75,1,0],[0.5,1,0],[0.25,1,0],[0,0.75,0],[0,0.5,0],[0,0.25,0]];shape=mxgraph.bpmn.task2;whiteSpace=wrap;rectStyle=rounded;size=10;html=1;container=1;expand=0;collapsible=0;taskMarker=abstract;" parent="xB0domjlbj_kg_IO6vz--2" vertex="1">
          <mxGeometry x="236" y="210" width="95" height="40" as="geometry" />
        </mxCell>
        <mxCell id="zkMpJKOp6QvyCTiO164W-63" value="" style="points=[[0.25,0.25,0],[0.5,0,0],[0.75,0.25,0],[1,0.5,0],[0.75,0.75,0],[0.5,1,0],[0.25,0.75,0],[0,0.5,0]];shape=mxgraph.bpmn.gateway2;html=1;verticalLabelPosition=bottom;labelBackgroundColor=#ffffff;verticalAlign=top;align=center;perimeter=rhombusPerimeter;outlineConnect=0;outline=none;symbol=none;gwType=exclusive;" parent="xB0domjlbj_kg_IO6vz--2" vertex="1">
          <mxGeometry x="532" y="105" width="45" height="40" as="geometry" />
        </mxCell>
        <mxCell id="zkMpJKOp6QvyCTiO164W-67" value="" style="edgeStyle=elbowEdgeStyle;fontSize=12;html=1;endArrow=blockThin;endFill=1;rounded=0;entryX=0;entryY=0.5;entryDx=0;entryDy=0;entryPerimeter=0;exitX=0.5;exitY=1;exitDx=0;exitDy=0;exitPerimeter=0;" parent="xB0domjlbj_kg_IO6vz--2" source="zkMpJKOp6QvyCTiO164W-57" target="zkMpJKOp6QvyCTiO164W-62" edge="1">
          <mxGeometry width="160" relative="1" as="geometry">
            <mxPoint x="198" y="92.5" as="sourcePoint" />
            <mxPoint x="265" y="87.5" as="targetPoint" />
            <Array as="points">
              <mxPoint x="200" y="210" />
            </Array>
          </mxGeometry>
        </mxCell>
        <mxCell id="zkMpJKOp6QvyCTiO164W-70" value="" style="edgeStyle=elbowEdgeStyle;fontSize=12;html=1;endArrow=blockThin;endFill=1;rounded=0;exitX=1;exitY=0.75;exitDx=0;exitDy=0;exitPerimeter=0;entryX=0.5;entryY=1;entryDx=0;entryDy=0;entryPerimeter=0;" parent="xB0domjlbj_kg_IO6vz--2" source="zkMpJKOp6QvyCTiO164W-62" target="zkMpJKOp6QvyCTiO164W-63" edge="1">
          <mxGeometry width="160" relative="1" as="geometry">
            <mxPoint x="365" y="95" as="sourcePoint" />
            <mxPoint x="443" y="75" as="targetPoint" />
            <Array as="points">
              <mxPoint x="555" y="195" />
            </Array>
          </mxGeometry>
        </mxCell>
        <mxCell id="zkMpJKOp6QvyCTiO164W-71" value="" style="edgeStyle=elbowEdgeStyle;fontSize=12;html=1;endArrow=blockThin;endFill=1;rounded=0;entryX=0.021;entryY=0.366;entryDx=0;entryDy=0;entryPerimeter=0;" parent="xB0domjlbj_kg_IO6vz--2" target="uzLKEDRiPb4tRCJ2dRm6-132" edge="1">
          <mxGeometry width="160" relative="1" as="geometry">
            <mxPoint x="390" y="58" as="sourcePoint" />
            <mxPoint x="446" y="58" as="targetPoint" />
            <Array as="points" />
          </mxGeometry>
        </mxCell>
        <mxCell id="zkMpJKOp6QvyCTiO164W-72" value="доставка" style="points=[[0.25,0,0],[0.5,0,0],[0.75,0,0],[1,0.25,0],[1,0.5,0],[1,0.75,0],[0.75,1,0],[0.5,1,0],[0.25,1,0],[0,0.75,0],[0,0.5,0],[0,0.25,0]];shape=mxgraph.bpmn.task2;whiteSpace=wrap;rectStyle=rounded;size=10;html=1;container=1;expand=0;collapsible=0;taskMarker=abstract;" parent="xB0domjlbj_kg_IO6vz--2" vertex="1">
          <mxGeometry x="616" y="105" width="63" height="40" as="geometry" />
        </mxCell>
        <mxCell id="zkMpJKOp6QvyCTiO164W-74" style="edgeStyle=none;curved=1;rounded=0;orthogonalLoop=1;jettySize=auto;html=1;exitX=1;exitY=0.5;exitDx=0;exitDy=0;exitPerimeter=0;entryX=0;entryY=0.5;entryDx=0;entryDy=0;entryPerimeter=0;fontSize=12;startSize=8;endSize=8;" parent="xB0domjlbj_kg_IO6vz--2" source="zkMpJKOp6QvyCTiO164W-63" target="zkMpJKOp6QvyCTiO164W-72" edge="1">
          <mxGeometry relative="1" as="geometry" />
        </mxCell>
        <mxCell id="zkMpJKOp6QvyCTiO164W-75" style="edgeStyle=none;curved=1;rounded=0;orthogonalLoop=1;jettySize=auto;html=1;exitX=1;exitY=0.5;exitDx=0;exitDy=0;exitPerimeter=0;entryX=0;entryY=0.5;entryDx=0;entryDy=0;entryPerimeter=0;fontSize=12;startSize=8;endSize=8;" parent="xB0domjlbj_kg_IO6vz--2" source="zkMpJKOp6QvyCTiO164W-72" target="zkMpJKOp6QvyCTiO164W-73" edge="1">
          <mxGeometry relative="1" as="geometry" />
        </mxCell>
        <mxCell id="zkMpJKOp6QvyCTiO164W-115" value="" style="points=[[0.145,0.145,0],[0.5,0,0],[0.855,0.145,0],[1,0.5,0],[0.855,0.855,0],[0.5,1,0],[0.145,0.855,0],[0,0.5,0]];shape=mxgraph.bpmn.event;html=1;verticalLabelPosition=bottom;labelBackgroundColor=#ffffff;verticalAlign=top;align=center;perimeter=ellipsePerimeter;outlineConnect=0;aspect=fixed;outline=end;symbol=terminate2;" parent="xB0domjlbj_kg_IO6vz--2" vertex="1">
          <mxGeometry x="974" y="107" width="33" height="33" as="geometry" />
        </mxCell>
        <mxCell id="zkMpJKOp6QvyCTiO164W-116" style="edgeStyle=none;curved=1;rounded=0;orthogonalLoop=1;jettySize=auto;html=1;exitX=1;exitY=0.5;exitDx=0;exitDy=0;exitPerimeter=0;entryX=0;entryY=0.5;entryDx=0;entryDy=0;entryPerimeter=0;fontSize=12;startSize=8;endSize=8;" parent="xB0domjlbj_kg_IO6vz--2" source="zkMpJKOp6QvyCTiO164W-73" target="zkMpJKOp6QvyCTiO164W-115" edge="1">
          <mxGeometry relative="1" as="geometry" />
        </mxCell>
        <mxCell id="zkMpJKOp6QvyCTiO164W-117" value="&quot;сообщение о завершении&quot;" style="shape=mxgraph.bpmn.data2;labelPosition=center;verticalLabelPosition=bottom;align=center;verticalAlign=top;size=15;html=1;" parent="xB0domjlbj_kg_IO6vz--2" vertex="1">
          <mxGeometry x="677" y="197" width="60" height="20" as="geometry" />
        </mxCell>
        <mxCell id="zkMpJKOp6QvyCTiO164W-119" value="" style="edgeStyle=elbowEdgeStyle;fontSize=12;html=1;endFill=0;startFill=0;endSize=6;startSize=6;dashed=1;dashPattern=1 4;endArrow=none;startArrow=none;rounded=0;curved=1;" parent="xB0domjlbj_kg_IO6vz--2" edge="1">
          <mxGeometry width="160" relative="1" as="geometry">
            <mxPoint x="615" y="203" as="sourcePoint" />
            <mxPoint x="675" y="203" as="targetPoint" />
          </mxGeometry>
        </mxCell>
        <mxCell id="zkMpJKOp6QvyCTiO164W-73" value="оповестить о завершении доставки" style="points=[[0.25,0,0],[0.5,0,0],[0.75,0,0],[1,0.25,0],[1,0.5,0],[1,0.75,0],[0.75,1,0],[0.5,1,0],[0.25,1,0],[0,0.75,0],[0,0.5,0],[0,0.25,0]];shape=mxgraph.bpmn.task2;whiteSpace=wrap;rectStyle=rounded;size=10;html=1;container=1;expand=0;collapsible=0;taskMarker=abstract;" parent="xB0domjlbj_kg_IO6vz--2" vertex="1">
          <mxGeometry x="763" y="97.5" width="84" height="55" as="geometry" />
        </mxCell>
        <mxCell id="uzLKEDRiPb4tRCJ2dRm6-5" value="" style="edgeStyle=elbowEdgeStyle;fontSize=12;html=1;endArrow=blockThin;endFill=1;rounded=0;entryX=0;entryY=0.5;entryDx=0;entryDy=0;entryPerimeter=0;exitX=0.5;exitY=0;exitDx=0;exitDy=0;exitPerimeter=0;" edge="1" parent="xB0domjlbj_kg_IO6vz--2" source="zkMpJKOp6QvyCTiO164W-57" target="uzLKEDRiPb4tRCJ2dRm6-4">
          <mxGeometry width="160" relative="1" as="geometry">
            <mxPoint x="343" y="-520" as="sourcePoint" />
            <mxPoint x="419" y="-584" as="targetPoint" />
            <Array as="points">
              <mxPoint x="200" y="66" />
            </Array>
          </mxGeometry>
        </mxCell>
        <mxCell id="uzLKEDRiPb4tRCJ2dRm6-4" value="Запуск таймера" style="rounded=1;whiteSpace=wrap;html=1;" vertex="1" parent="xB0domjlbj_kg_IO6vz--2">
          <mxGeometry x="217" y="33" width="57" height="44" as="geometry" />
        </mxCell>
        <mxCell id="uzLKEDRiPb4tRCJ2dRm6-10" value="" style="edgeStyle=elbowEdgeStyle;fontSize=12;html=1;endFill=0;startFill=0;endSize=6;startSize=6;dashed=1;dashPattern=1 4;endArrow=none;startArrow=none;rounded=0;" edge="1" parent="xB0domjlbj_kg_IO6vz--2">
          <mxGeometry width="160" relative="1" as="geometry">
            <mxPoint x="608" y="831" as="sourcePoint" />
            <mxPoint x="796" y="163" as="targetPoint" />
            <Array as="points">
              <mxPoint x="614" y="510" />
            </Array>
          </mxGeometry>
        </mxCell>
        <mxCell id="uzLKEDRiPb4tRCJ2dRm6-11" value="" style="edgeStyle=elbowEdgeStyle;fontSize=12;html=1;endFill=0;startFill=0;endSize=6;startSize=6;dashed=1;dashPattern=1 4;endArrow=none;startArrow=none;rounded=0;curved=1;exitX=0.512;exitY=0.991;exitDx=0;exitDy=0;exitPerimeter=0;" edge="1" parent="xB0domjlbj_kg_IO6vz--2" source="zkMpJKOp6QvyCTiO164W-73">
          <mxGeometry width="160" relative="1" as="geometry">
            <mxPoint x="795" y="145" as="sourcePoint" />
            <mxPoint x="797" y="165" as="targetPoint" />
          </mxGeometry>
        </mxCell>
        <mxCell id="uzLKEDRiPb4tRCJ2dRm6-13" value="Формирование сообщения об отсутствии курьеров и промокода в подарок" style="points=[[0.25,0,0],[0.5,0,0],[0.75,0,0],[1,0.25,0],[1,0.5,0],[1,0.75,0],[0.75,1,0],[0.5,1,0],[0.25,1,0],[0,0.75,0],[0,0.5,0],[0,0.25,0]];shape=mxgraph.bpmn.task2;whiteSpace=wrap;rectStyle=rounded;size=10;html=1;container=1;expand=0;collapsible=0;taskMarker=abstract;" vertex="1" parent="xB0domjlbj_kg_IO6vz--2">
          <mxGeometry x="424.12" y="115" width="98.88" height="87" as="geometry" />
        </mxCell>
        <mxCell id="uzLKEDRiPb4tRCJ2dRm6-18" style="edgeStyle=orthogonalEdgeStyle;rounded=0;orthogonalLoop=1;jettySize=auto;html=1;entryX=0.5;entryY=0;entryDx=0;entryDy=0;entryPerimeter=0;" edge="1" parent="xB0domjlbj_kg_IO6vz--2" target="uzLKEDRiPb4tRCJ2dRm6-13">
          <mxGeometry relative="1" as="geometry">
            <mxPoint x="471" y="82.99999999999977" as="sourcePoint" />
          </mxGeometry>
        </mxCell>
        <mxCell id="uzLKEDRiPb4tRCJ2dRm6-21" style="edgeStyle=orthogonalEdgeStyle;rounded=0;orthogonalLoop=1;jettySize=auto;html=1;exitX=1;exitY=0.5;exitDx=0;exitDy=0;exitPerimeter=0;entryX=0.5;entryY=0;entryDx=0;entryDy=0;entryPerimeter=0;" edge="1" parent="xB0domjlbj_kg_IO6vz--2" source="uzLKEDRiPb4tRCJ2dRm6-132" target="zkMpJKOp6QvyCTiO164W-63">
          <mxGeometry relative="1" as="geometry">
            <mxPoint x="496" y="58" as="sourcePoint" />
          </mxGeometry>
        </mxCell>
        <mxCell id="uzLKEDRiPb4tRCJ2dRm6-22" value="промокод" style="shape=mxgraph.bpmn.data2;labelPosition=center;verticalLabelPosition=bottom;align=center;verticalAlign=top;size=15;html=1;" vertex="1" parent="xB0domjlbj_kg_IO6vz--2">
          <mxGeometry x="364" y="202" width="57" height="19" as="geometry" />
        </mxCell>
        <mxCell id="uzLKEDRiPb4tRCJ2dRm6-26" value="" style="edgeStyle=elbowEdgeStyle;fontSize=12;html=1;endFill=0;startFill=0;endSize=6;startSize=6;dashed=1;dashPattern=1 4;endArrow=none;startArrow=none;rounded=0;curved=1;" edge="1" parent="xB0domjlbj_kg_IO6vz--2">
          <mxGeometry width="160" relative="1" as="geometry">
            <mxPoint x="424.12" y="215.82" as="sourcePoint" />
            <mxPoint x="474" y="216" as="targetPoint" />
          </mxGeometry>
        </mxCell>
        <mxCell id="uzLKEDRiPb4tRCJ2dRm6-119" value="" style="edgeStyle=elbowEdgeStyle;fontSize=12;html=1;endFill=0;startFill=0;endSize=6;startSize=6;dashed=1;dashPattern=1 4;endArrow=none;startArrow=none;rounded=0;entryX=0.5;entryY=0;entryDx=0;entryDy=0;entryPerimeter=0;" edge="1" parent="xB0domjlbj_kg_IO6vz--2" target="uzLKEDRiPb4tRCJ2dRm6-132">
          <mxGeometry width="160" relative="1" as="geometry">
            <mxPoint x="483" y="-19" as="sourcePoint" />
            <mxPoint x="471" y="33" as="targetPoint" />
            <Array as="points" />
          </mxGeometry>
        </mxCell>
        <mxCell id="uzLKEDRiPb4tRCJ2dRm6-125" value="" style="edgeStyle=elbowEdgeStyle;fontSize=12;html=1;endFill=0;startFill=0;endSize=6;startSize=6;dashed=1;dashPattern=1 4;endArrow=none;startArrow=none;rounded=0;" edge="1" parent="xB0domjlbj_kg_IO6vz--2">
          <mxGeometry width="160" relative="1" as="geometry">
            <mxPoint x="276" y="119.40999999999997" as="sourcePoint" />
            <mxPoint x="225" y="119.40999999999997" as="targetPoint" />
            <Array as="points" />
          </mxGeometry>
        </mxCell>
        <mxCell id="uzLKEDRiPb4tRCJ2dRm6-126" value="" style="html=1;shape=mxgraph.flowchart.annotation_2;align=left;labelPosition=right;" vertex="1" parent="xB0domjlbj_kg_IO6vz--2">
          <mxGeometry x="278.5" y="90" width="10" height="60" as="geometry" />
        </mxCell>
        <mxCell id="uzLKEDRiPb4tRCJ2dRm6-127" value="Есть ли свободный курьер?" style="text;html=1;strokeColor=none;fillColor=none;align=center;verticalAlign=middle;whiteSpace=wrap;rounded=0;" vertex="1" parent="xB0domjlbj_kg_IO6vz--2">
          <mxGeometry x="296" y="105" width="60" height="28.24" as="geometry" />
        </mxCell>
        <mxCell id="uzLKEDRiPb4tRCJ2dRm6-130" value="" style="edgeStyle=elbowEdgeStyle;fontSize=12;html=1;endFill=0;startFill=0;endSize=6;startSize=6;dashed=1;dashPattern=1 4;endArrow=openThin;startArrow=none;rounded=0;entryX=0.5;entryY=0;entryDx=0;entryDy=0;entryPerimeter=0;" edge="1" parent="xB0domjlbj_kg_IO6vz--2" target="zkMpJKOp6QvyCTiO164W-53">
          <mxGeometry width="160" relative="1" as="geometry">
            <mxPoint x="115" y="31" as="sourcePoint" />
            <mxPoint x="115" y="92" as="targetPoint" />
          </mxGeometry>
        </mxCell>
        <mxCell id="uzLKEDRiPb4tRCJ2dRm6-132" value="" style="points=[[0.25,0.25,0],[0.5,0,0],[0.75,0.25,0],[1,0.5,0],[0.75,0.75,0],[0.5,1,0],[0.25,0.75,0],[0,0.5,0]];shape=mxgraph.bpmn.gateway2;html=1;verticalLabelPosition=bottom;labelBackgroundColor=#ffffff;verticalAlign=top;align=center;perimeter=rhombusPerimeter;outlineConnect=0;outline=none;symbol=none;gwType=exclusive;" vertex="1" parent="xB0domjlbj_kg_IO6vz--2">
          <mxGeometry x="451.06" y="43" width="45" height="41" as="geometry" />
        </mxCell>
        <mxCell id="xB0domjlbj_kg_IO6vz--4" value="Клиент" style="swimlane;html=1;startSize=20;fontStyle=0;collapsible=0;horizontal=0;swimlaneLine=1;swimlaneFillColor=#ffffff;strokeWidth=2;whiteSpace=wrap;" parent="1" vertex="1">
          <mxGeometry x="133" y="71" width="1170" height="423" as="geometry" />
        </mxCell>
        <mxCell id="xB0domjlbj_kg_IO6vz--7" value="" style="points=[[0.145,0.145,0],[0.5,0,0],[0.855,0.145,0],[1,0.5,0],[0.855,0.855,0],[0.5,1,0],[0.145,0.855,0],[0,0.5,0]];shape=mxgraph.bpmn.event;html=1;verticalLabelPosition=bottom;labelBackgroundColor=#ffffff;verticalAlign=top;align=center;perimeter=ellipsePerimeter;outlineConnect=0;aspect=fixed;outline=standard;symbol=general;" parent="xB0domjlbj_kg_IO6vz--4" vertex="1">
          <mxGeometry x="30" y="157.5" width="30.5" height="30.5" as="geometry" />
        </mxCell>
        <mxCell id="xB0domjlbj_kg_IO6vz--10" value="Выбрать магазин" style="points=[[0.25,0,0],[0.5,0,0],[0.75,0,0],[1,0.25,0],[1,0.5,0],[1,0.75,0],[0.75,1,0],[0.5,1,0],[0.25,1,0],[0,0.75,0],[0,0.5,0],[0,0.25,0]];shape=mxgraph.bpmn.task2;whiteSpace=wrap;rectStyle=rounded;size=10;html=1;container=1;expand=0;collapsible=0;taskMarker=abstract;" parent="xB0domjlbj_kg_IO6vz--4" vertex="1">
          <mxGeometry x="90" y="135.25" width="90" height="75" as="geometry" />
        </mxCell>
        <mxCell id="xB0domjlbj_kg_IO6vz--11" value="Создать корзину продуктов" style="points=[[0.25,0,0],[0.5,0,0],[0.75,0,0],[1,0.25,0],[1,0.5,0],[1,0.75,0],[0.75,1,0],[0.5,1,0],[0.25,1,0],[0,0.75,0],[0,0.5,0],[0,0.25,0]];shape=mxgraph.bpmn.task2;whiteSpace=wrap;rectStyle=rounded;size=10;html=1;container=1;expand=0;collapsible=0;taskMarker=abstract;" parent="xB0domjlbj_kg_IO6vz--4" vertex="1">
          <mxGeometry x="210" y="136.75" width="90" height="72" as="geometry" />
        </mxCell>
        <mxCell id="xB0domjlbj_kg_IO6vz--12" value="Подтверждение заказа&amp;nbsp;&lt;div&gt;(внести свои контактные данные)&lt;/div&gt;" style="points=[[0.25,0,0],[0.5,0,0],[0.75,0,0],[1,0.25,0],[1,0.5,0],[1,0.75,0],[0.75,1,0],[0.5,1,0],[0.25,1,0],[0,0.75,0],[0,0.5,0],[0,0.25,0]];shape=mxgraph.bpmn.task2;whiteSpace=wrap;rectStyle=rounded;size=10;html=1;container=1;expand=0;collapsible=0;taskMarker=abstract;" parent="xB0domjlbj_kg_IO6vz--4" vertex="1">
          <mxGeometry x="320" y="134.25" width="95" height="77" as="geometry" />
        </mxCell>
        <mxCell id="zkMpJKOp6QvyCTiO164W-49" style="edgeStyle=none;curved=1;rounded=0;orthogonalLoop=1;jettySize=auto;html=1;exitX=1;exitY=0.5;exitDx=0;exitDy=0;exitPerimeter=0;fontSize=12;startSize=8;endSize=8;" parent="xB0domjlbj_kg_IO6vz--4" source="xB0domjlbj_kg_IO6vz--13" target="xB0domjlbj_kg_IO6vz--19" edge="1">
          <mxGeometry relative="1" as="geometry" />
        </mxCell>
        <mxCell id="xB0domjlbj_kg_IO6vz--13" value="Забрать доставку и оплатить&amp;nbsp;" style="points=[[0.25,0,0],[0.5,0,0],[0.75,0,0],[1,0.25,0],[1,0.5,0],[1,0.75,0],[0.75,1,0],[0.5,1,0],[0.25,1,0],[0,0.75,0],[0,0.5,0],[0,0.25,0]];shape=mxgraph.bpmn.task2;whiteSpace=wrap;rectStyle=rounded;size=10;html=1;container=1;expand=0;collapsible=0;taskMarker=abstract;" parent="xB0domjlbj_kg_IO6vz--4" vertex="1">
          <mxGeometry x="772" y="240" width="80" height="68" as="geometry" />
        </mxCell>
        <mxCell id="xB0domjlbj_kg_IO6vz--15" value="" style="points=[[0.145,0.145,0],[0.5,0,0],[0.855,0.145,0],[1,0.5,0],[0.855,0.855,0],[0.5,1,0],[0.145,0.855,0],[0,0.5,0]];shape=mxgraph.bpmn.event;html=1;verticalLabelPosition=bottom;labelBackgroundColor=#ffffff;verticalAlign=top;align=center;perimeter=ellipsePerimeter;outlineConnect=0;aspect=fixed;outline=end;symbol=terminate2;" parent="xB0domjlbj_kg_IO6vz--4" vertex="1">
          <mxGeometry x="1071" y="257.5" width="33" height="33" as="geometry" />
        </mxCell>
        <mxCell id="xB0domjlbj_kg_IO6vz--16" value="" style="edgeStyle=elbowEdgeStyle;fontSize=12;html=1;endArrow=blockThin;endFill=1;rounded=0;entryX=0;entryY=0.5;entryDx=0;entryDy=0;entryPerimeter=0;" parent="xB0domjlbj_kg_IO6vz--4" source="xB0domjlbj_kg_IO6vz--7" target="xB0domjlbj_kg_IO6vz--10" edge="1">
          <mxGeometry width="160" relative="1" as="geometry">
            <mxPoint x="-79.5" y="-253.75" as="sourcePoint" />
            <mxPoint x="220.5" y="136.25" as="targetPoint" />
          </mxGeometry>
        </mxCell>
        <mxCell id="xB0domjlbj_kg_IO6vz--17" value="" style="edgeStyle=elbowEdgeStyle;fontSize=12;html=1;endArrow=blockThin;endFill=1;rounded=0;entryX=0;entryY=0.5;entryDx=0;entryDy=0;entryPerimeter=0;exitX=1;exitY=0.5;exitDx=0;exitDy=0;exitPerimeter=0;" parent="xB0domjlbj_kg_IO6vz--4" source="xB0domjlbj_kg_IO6vz--10" target="xB0domjlbj_kg_IO6vz--11" edge="1">
          <mxGeometry width="160" relative="1" as="geometry">
            <mxPoint x="71" y="146" as="sourcePoint" />
            <mxPoint x="100" y="146" as="targetPoint" />
          </mxGeometry>
        </mxCell>
        <mxCell id="xB0domjlbj_kg_IO6vz--19" value="Обратная связь с магазином" style="points=[[0.25,0,0],[0.5,0,0],[0.75,0,0],[1,0.25,0],[1,0.5,0],[1,0.75,0],[0.75,1,0],[0.5,1,0],[0.25,1,0],[0,0.75,0],[0,0.5,0],[0,0.25,0]];shape=mxgraph.bpmn.task2;whiteSpace=wrap;rectStyle=rounded;size=10;html=1;container=1;expand=0;collapsible=0;taskMarker=abstract;" parent="xB0domjlbj_kg_IO6vz--4" vertex="1">
          <mxGeometry x="922" y="243.38" width="70" height="61.25" as="geometry" />
        </mxCell>
        <mxCell id="xB0domjlbj_kg_IO6vz--23" value="&quot;Заказ&quot;" style="shape=mxgraph.bpmn.data2;labelPosition=center;verticalLabelPosition=bottom;align=center;verticalAlign=top;size=15;html=1;" parent="xB0domjlbj_kg_IO6vz--4" vertex="1">
          <mxGeometry x="330" y="10" width="62.5" height="40" as="geometry" />
        </mxCell>
        <mxCell id="xB0domjlbj_kg_IO6vz--22" value="" style="edgeStyle=elbowEdgeStyle;fontSize=12;html=1;endFill=0;startFill=0;endSize=6;startSize=6;dashed=1;dashPattern=1 4;endArrow=none;startArrow=none;rounded=0;entryX=0.5;entryY=0;entryDx=0;entryDy=0;entryPerimeter=0;exitX=0.5;exitY=1;exitDx=0;exitDy=0;exitPerimeter=0;" parent="xB0domjlbj_kg_IO6vz--4" source="xB0domjlbj_kg_IO6vz--23" target="xB0domjlbj_kg_IO6vz--12" edge="1">
          <mxGeometry width="160" relative="1" as="geometry">
            <mxPoint x="260" y="80" as="sourcePoint" />
            <mxPoint x="420" y="-10" as="targetPoint" />
            <Array as="points">
              <mxPoint x="368" y="80" />
            </Array>
          </mxGeometry>
        </mxCell>
        <mxCell id="zkMpJKOp6QvyCTiO164W-14" style="edgeStyle=none;curved=1;rounded=0;orthogonalLoop=1;jettySize=auto;html=1;fontSize=12;startSize=8;endSize=8;entryX=0;entryY=0.5;entryDx=0;entryDy=0;entryPerimeter=0;" parent="xB0domjlbj_kg_IO6vz--4" source="QzPdpGsSKlCRJFQtMwpN-4" target="zkMpJKOp6QvyCTiO164W-11" edge="1">
          <mxGeometry relative="1" as="geometry">
            <mxPoint x="610" y="136.25" as="targetPoint" />
          </mxGeometry>
        </mxCell>
        <mxCell id="QzPdpGsSKlCRJFQtMwpN-4" value="" style="points=[[0.145,0.145,0],[0.5,0,0],[0.855,0.145,0],[1,0.5,0],[0.855,0.855,0],[0.5,1,0],[0.145,0.855,0],[0,0.5,0]];shape=mxgraph.bpmn.event;html=1;verticalLabelPosition=bottom;labelBackgroundColor=#ffffff;verticalAlign=top;align=center;perimeter=ellipsePerimeter;outlineConnect=0;aspect=fixed;outline=throwing;symbol=general;" parent="xB0domjlbj_kg_IO6vz--4" vertex="1">
          <mxGeometry x="480" y="147.75" width="50" height="50" as="geometry" />
        </mxCell>
        <mxCell id="QzPdpGsSKlCRJFQtMwpN-6" style="edgeStyle=orthogonalEdgeStyle;rounded=0;orthogonalLoop=1;jettySize=auto;html=1;exitX=1;exitY=0.5;exitDx=0;exitDy=0;exitPerimeter=0;entryX=0;entryY=0.5;entryDx=0;entryDy=0;entryPerimeter=0;" parent="xB0domjlbj_kg_IO6vz--4" source="xB0domjlbj_kg_IO6vz--12" target="QzPdpGsSKlCRJFQtMwpN-4" edge="1">
          <mxGeometry relative="1" as="geometry" />
        </mxCell>
        <mxCell id="QzPdpGsSKlCRJFQtMwpN-7" value="" style="points=[[0.25,0.25,0],[0.5,0,0],[0.75,0.25,0],[1,0.5,0],[0.75,0.75,0],[0.5,1,0],[0.25,0.75,0],[0,0.5,0]];shape=mxgraph.bpmn.gateway2;html=1;verticalLabelPosition=bottom;labelBackgroundColor=#ffffff;verticalAlign=top;align=center;perimeter=rhombusPerimeter;outlineConnect=0;outline=none;symbol=none;gwType=exclusive;" parent="xB0domjlbj_kg_IO6vz--4" vertex="1">
          <mxGeometry x="787" y="147.75" width="50" height="50" as="geometry" />
        </mxCell>
        <mxCell id="QzPdpGsSKlCRJFQtMwpN-9" value="Внесение корректировок&lt;div&gt;в заказ&lt;/div&gt;" style="points=[[0.25,0,0],[0.5,0,0],[0.75,0,0],[1,0.25,0],[1,0.5,0],[1,0.75,0],[0.75,1,0],[0.5,1,0],[0.25,1,0],[0,0.75,0],[0,0.5,0],[0,0.25,0]];shape=mxgraph.bpmn.task2;whiteSpace=wrap;rectStyle=rounded;size=10;html=1;container=1;expand=0;collapsible=0;taskMarker=abstract;" parent="xB0domjlbj_kg_IO6vz--4" vertex="1">
          <mxGeometry x="517" y="17" width="80" height="46" as="geometry" />
        </mxCell>
        <mxCell id="xB0domjlbj_kg_IO6vz--21" value="" style="edgeStyle=elbowEdgeStyle;fontSize=12;html=1;endFill=0;startFill=0;endSize=6;startSize=6;dashed=1;dashPattern=1 4;endArrow=openThin;startArrow=none;rounded=0;entryX=0.5;entryY=0;entryDx=0;entryDy=0;" parent="xB0domjlbj_kg_IO6vz--4" target="zkMpJKOp6QvyCTiO164W-6" edge="1">
          <mxGeometry width="160" relative="1" as="geometry">
            <mxPoint x="368" y="80" as="sourcePoint" />
            <mxPoint x="135" y="-130" as="targetPoint" />
            <Array as="points">
              <mxPoint x="85" y="-40" />
            </Array>
          </mxGeometry>
        </mxCell>
        <mxCell id="zkMpJKOp6QvyCTiO164W-9" style="edgeStyle=none;curved=1;rounded=0;orthogonalLoop=1;jettySize=auto;html=1;exitX=0.145;exitY=0.145;exitDx=0;exitDy=0;exitPerimeter=0;fontSize=12;startSize=8;endSize=8;" parent="xB0domjlbj_kg_IO6vz--4" source="xB0domjlbj_kg_IO6vz--15" target="xB0domjlbj_kg_IO6vz--15" edge="1">
          <mxGeometry relative="1" as="geometry" />
        </mxCell>
        <mxCell id="zkMpJKOp6QvyCTiO164W-42" style="edgeStyle=none;curved=1;rounded=0;orthogonalLoop=1;jettySize=auto;html=1;exitX=1;exitY=0.5;exitDx=0;exitDy=0;exitPerimeter=0;fontSize=12;startSize=8;endSize=8;" parent="xB0domjlbj_kg_IO6vz--4" source="uzLKEDRiPb4tRCJ2dRm6-29" target="QzPdpGsSKlCRJFQtMwpN-7" edge="1">
          <mxGeometry relative="1" as="geometry" />
        </mxCell>
        <mxCell id="zkMpJKOp6QvyCTiO164W-11" value="" style="points=[[0.145,0.145,0],[0.5,0,0],[0.855,0.145,0],[1,0.5,0],[0.855,0.855,0],[0.5,1,0],[0.145,0.855,0],[0,0.5,0]];shape=mxgraph.bpmn.event;html=1;verticalLabelPosition=bottom;labelBackgroundColor=#ffffff;verticalAlign=top;align=center;perimeter=ellipsePerimeter;outlineConnect=0;aspect=fixed;outline=catching;symbol=message;" parent="xB0domjlbj_kg_IO6vz--4" vertex="1">
          <mxGeometry x="595" y="147.75" width="50" height="50" as="geometry" />
        </mxCell>
        <mxCell id="zkMpJKOp6QvyCTiO164W-12" style="edgeStyle=none;curved=1;rounded=0;orthogonalLoop=1;jettySize=auto;html=1;exitX=1;exitY=0.5;exitDx=0;exitDy=0;exitPerimeter=0;entryX=0;entryY=0.5;entryDx=0;entryDy=0;entryPerimeter=0;fontSize=12;startSize=8;endSize=8;" parent="xB0domjlbj_kg_IO6vz--4" source="xB0domjlbj_kg_IO6vz--11" target="xB0domjlbj_kg_IO6vz--12" edge="1">
          <mxGeometry relative="1" as="geometry" />
        </mxCell>
        <mxCell id="zkMpJKOp6QvyCTiO164W-13" value="Пришло сообщение" style="text;html=1;align=center;verticalAlign=middle;whiteSpace=wrap;rounded=0;" parent="xB0domjlbj_kg_IO6vz--4" vertex="1">
          <mxGeometry x="585" y="210" width="60" height="30" as="geometry" />
        </mxCell>
        <mxCell id="zkMpJKOp6QvyCTiO164W-15" value="" style="edgeStyle=elbowEdgeStyle;fontSize=12;html=1;endFill=0;startFill=0;endSize=6;startSize=6;dashed=1;dashPattern=1 4;endArrow=none;startArrow=none;rounded=0;exitX=1;exitY=0.5;exitDx=0;exitDy=0;exitPerimeter=0;entryX=0;entryY=0.5;entryDx=0;entryDy=0;entryPerimeter=0;" parent="xB0domjlbj_kg_IO6vz--4" source="QzPdpGsSKlCRJFQtMwpN-7" target="zkMpJKOp6QvyCTiO164W-16" edge="1">
          <mxGeometry width="160" relative="1" as="geometry">
            <mxPoint x="770" y="133" as="sourcePoint" />
            <mxPoint x="830" y="170" as="targetPoint" />
            <Array as="points">
              <mxPoint x="800" y="165" />
            </Array>
          </mxGeometry>
        </mxCell>
        <mxCell id="zkMpJKOp6QvyCTiO164W-16" value="" style="html=1;shape=mxgraph.flowchart.annotation_2;align=left;labelPosition=right;" parent="xB0domjlbj_kg_IO6vz--4" vertex="1">
          <mxGeometry x="970" y="137.75" width="10" height="60" as="geometry" />
        </mxCell>
        <mxCell id="zkMpJKOp6QvyCTiO164W-17" value="Сообщение об отсутствии продуктов?" style="text;html=1;strokeColor=none;fillColor=none;align=center;verticalAlign=middle;whiteSpace=wrap;rounded=0;" parent="xB0domjlbj_kg_IO6vz--4" vertex="1">
          <mxGeometry x="989" y="157.5" width="60" height="23" as="geometry" />
        </mxCell>
        <mxCell id="zkMpJKOp6QvyCTiO164W-22" value="" style="edgeStyle=elbowEdgeStyle;fontSize=12;html=1;endArrow=blockThin;endFill=1;rounded=0;exitX=0.5;exitY=0;exitDx=0;exitDy=0;exitPerimeter=0;" parent="xB0domjlbj_kg_IO6vz--4" source="QzPdpGsSKlCRJFQtMwpN-7" target="zkMpJKOp6QvyCTiO164W-21" edge="1">
          <mxGeometry width="160" relative="1" as="geometry">
            <mxPoint x="875" y="198" as="sourcePoint" />
            <mxPoint x="875" y="150" as="targetPoint" />
            <Array as="points" />
          </mxGeometry>
        </mxCell>
        <mxCell id="zkMpJKOp6QvyCTiO164W-21" value="" style="points=[[0.25,0.25,0],[0.5,0,0],[0.75,0.25,0],[1,0.5,0],[0.75,0.75,0],[0.5,1,0],[0.25,0.75,0],[0,0.5,0]];shape=mxgraph.bpmn.gateway2;html=1;verticalLabelPosition=bottom;labelBackgroundColor=#ffffff;verticalAlign=top;align=center;perimeter=rhombusPerimeter;outlineConnect=0;outline=none;symbol=none;gwType=exclusive;" parent="xB0domjlbj_kg_IO6vz--4" vertex="1">
          <mxGeometry x="787" y="85.25000000000001" width="50" height="50" as="geometry" />
        </mxCell>
        <mxCell id="zkMpJKOp6QvyCTiO164W-23" value="Закрытие заказа" style="points=[[0.25,0,0],[0.5,0,0],[0.75,0,0],[1,0.25,0],[1,0.5,0],[1,0.75,0],[0.75,1,0],[0.5,1,0],[0.25,1,0],[0,0.75,0],[0,0.5,0],[0,0.25,0]];shape=mxgraph.bpmn.task2;whiteSpace=wrap;rectStyle=rounded;size=10;html=1;container=1;expand=0;collapsible=0;taskMarker=abstract;" parent="xB0domjlbj_kg_IO6vz--4" vertex="1">
          <mxGeometry x="824" y="10" width="70" height="46.5" as="geometry" />
        </mxCell>
        <mxCell id="zkMpJKOp6QvyCTiO164W-24" value="" style="edgeStyle=elbowEdgeStyle;fontSize=12;html=1;endFill=0;startFill=0;endSize=6;startSize=6;dashed=1;dashPattern=1 4;endArrow=none;startArrow=none;rounded=0;" parent="xB0domjlbj_kg_IO6vz--4" edge="1">
          <mxGeometry width="160" relative="1" as="geometry">
            <mxPoint x="889" y="112" as="sourcePoint" />
            <mxPoint x="838" y="112" as="targetPoint" />
            <Array as="points" />
          </mxGeometry>
        </mxCell>
        <mxCell id="zkMpJKOp6QvyCTiO164W-25" value="" style="html=1;shape=mxgraph.flowchart.annotation_2;align=left;labelPosition=right;" parent="xB0domjlbj_kg_IO6vz--4" vertex="1">
          <mxGeometry x="890" y="80.24999999999999" width="10" height="60" as="geometry" />
        </mxCell>
        <mxCell id="zkMpJKOp6QvyCTiO164W-26" value="Закрыть ли заказ?" style="text;html=1;strokeColor=none;fillColor=none;align=center;verticalAlign=middle;whiteSpace=wrap;rounded=0;" parent="xB0domjlbj_kg_IO6vz--4" vertex="1">
          <mxGeometry x="905" y="92.64" width="60" height="28.24" as="geometry" />
        </mxCell>
        <mxCell id="zkMpJKOp6QvyCTiO164W-32" value="" style="edgeStyle=elbowEdgeStyle;fontSize=12;html=1;endArrow=blockThin;endFill=1;rounded=0;entryX=0;entryY=0.5;entryDx=0;entryDy=0;entryPerimeter=0;exitX=0.5;exitY=0;exitDx=0;exitDy=0;exitPerimeter=0;" parent="xB0domjlbj_kg_IO6vz--4" source="zkMpJKOp6QvyCTiO164W-21" target="zkMpJKOp6QvyCTiO164W-23" edge="1">
          <mxGeometry width="160" relative="1" as="geometry">
            <mxPoint x="838.9999999999995" y="78.75" as="sourcePoint" />
            <mxPoint x="803.9999999999995" y="22" as="targetPoint" />
            <Array as="points">
              <mxPoint x="807" y="56" />
            </Array>
          </mxGeometry>
        </mxCell>
        <mxCell id="zkMpJKOp6QvyCTiO164W-34" value="" style="points=[[0.145,0.145,0],[0.5,0,0],[0.855,0.145,0],[1,0.5,0],[0.855,0.855,0],[0.5,1,0],[0.145,0.855,0],[0,0.5,0]];shape=mxgraph.bpmn.event;html=1;verticalLabelPosition=bottom;labelBackgroundColor=#ffffff;verticalAlign=top;align=center;perimeter=ellipsePerimeter;outlineConnect=0;aspect=fixed;outline=end;symbol=terminate2;" parent="xB0domjlbj_kg_IO6vz--4" vertex="1">
          <mxGeometry x="965" y="16.749999999999986" width="33" height="33" as="geometry" />
        </mxCell>
        <mxCell id="zkMpJKOp6QvyCTiO164W-36" value="" style="edgeStyle=elbowEdgeStyle;fontSize=12;html=1;endArrow=blockThin;endFill=1;rounded=0;exitX=0;exitY=0.5;exitDx=0;exitDy=0;exitPerimeter=0;entryX=1;entryY=0.5;entryDx=0;entryDy=0;entryPerimeter=0;" parent="xB0domjlbj_kg_IO6vz--4" source="zkMpJKOp6QvyCTiO164W-21" edge="1" target="QzPdpGsSKlCRJFQtMwpN-9">
          <mxGeometry width="160" relative="1" as="geometry">
            <mxPoint x="812" y="85" as="sourcePoint" />
            <mxPoint x="601" y="40" as="targetPoint" />
            <Array as="points">
              <mxPoint x="777" y="82" />
            </Array>
          </mxGeometry>
        </mxCell>
        <mxCell id="zkMpJKOp6QvyCTiO164W-40" style="edgeStyle=none;curved=1;rounded=0;orthogonalLoop=1;jettySize=auto;html=1;fontSize=12;startSize=8;endSize=8;exitX=1;exitY=0.5;exitDx=0;exitDy=0;exitPerimeter=0;entryX=0;entryY=0.5;entryDx=0;entryDy=0;entryPerimeter=0;" parent="xB0domjlbj_kg_IO6vz--4" source="zkMpJKOp6QvyCTiO164W-23" target="zkMpJKOp6QvyCTiO164W-34" edge="1">
          <mxGeometry relative="1" as="geometry">
            <mxPoint x="902" y="30" as="sourcePoint" />
            <mxPoint x="959" y="30" as="targetPoint" />
          </mxGeometry>
        </mxCell>
        <mxCell id="zkMpJKOp6QvyCTiO164W-44" style="edgeStyle=none;curved=1;rounded=0;orthogonalLoop=1;jettySize=auto;html=1;exitX=0.5;exitY=1;exitDx=0;exitDy=0;exitPerimeter=0;entryX=0.5;entryY=0;entryDx=0;entryDy=0;entryPerimeter=0;fontSize=12;startSize=8;endSize=8;" parent="xB0domjlbj_kg_IO6vz--4" source="QzPdpGsSKlCRJFQtMwpN-7" target="xB0domjlbj_kg_IO6vz--13" edge="1">
          <mxGeometry relative="1" as="geometry" />
        </mxCell>
        <mxCell id="zkMpJKOp6QvyCTiO164W-45" value="&quot;Измененный заказ&quot;" style="shape=mxgraph.bpmn.data2;labelPosition=center;verticalLabelPosition=bottom;align=center;verticalAlign=top;size=15;html=1;" parent="xB0domjlbj_kg_IO6vz--4" vertex="1">
          <mxGeometry x="429" y="13.25" width="62.5" height="40" as="geometry" />
        </mxCell>
        <mxCell id="zkMpJKOp6QvyCTiO164W-47" value="" style="edgeStyle=elbowEdgeStyle;fontSize=12;html=1;endFill=0;startFill=0;endSize=6;startSize=6;dashed=1;dashPattern=1 4;endArrow=openThin;startArrow=none;rounded=0;entryX=0.5;entryY=1;entryDx=0;entryDy=0;entryPerimeter=0;" parent="xB0domjlbj_kg_IO6vz--4" target="zkMpJKOp6QvyCTiO164W-7" edge="1">
          <mxGeometry width="160" relative="1" as="geometry">
            <mxPoint x="558" y="-20" as="sourcePoint" />
            <mxPoint x="650" y="-260" as="targetPoint" />
            <Array as="points">
              <mxPoint x="159" y="-90" />
            </Array>
          </mxGeometry>
        </mxCell>
        <mxCell id="zkMpJKOp6QvyCTiO164W-50" style="edgeStyle=none;curved=1;rounded=0;orthogonalLoop=1;jettySize=auto;html=1;entryX=0;entryY=0.5;entryDx=0;entryDy=0;entryPerimeter=0;fontSize=12;startSize=8;endSize=8;" parent="xB0domjlbj_kg_IO6vz--4" source="xB0domjlbj_kg_IO6vz--19" target="xB0domjlbj_kg_IO6vz--15" edge="1">
          <mxGeometry relative="1" as="geometry" />
        </mxCell>
        <mxCell id="uzLKEDRiPb4tRCJ2dRm6-29" value="" style="points=[[0.25,0.25,0],[0.5,0,0],[0.75,0.25,0],[1,0.5,0],[0.75,0.75,0],[0.5,1,0],[0.25,0.75,0],[0,0.5,0]];shape=mxgraph.bpmn.gateway2;html=1;verticalLabelPosition=bottom;labelBackgroundColor=#ffffff;verticalAlign=top;align=center;perimeter=rhombusPerimeter;outlineConnect=0;outline=none;symbol=none;gwType=exclusive;" vertex="1" parent="xB0domjlbj_kg_IO6vz--4">
          <mxGeometry x="677" y="147.75" width="50" height="50" as="geometry" />
        </mxCell>
        <mxCell id="uzLKEDRiPb4tRCJ2dRm6-30" value="" style="edgeStyle=none;curved=1;rounded=0;orthogonalLoop=1;jettySize=auto;html=1;exitX=1;exitY=0.5;exitDx=0;exitDy=0;exitPerimeter=0;fontSize=12;startSize=8;endSize=8;" edge="1" parent="xB0domjlbj_kg_IO6vz--4" source="zkMpJKOp6QvyCTiO164W-11" target="uzLKEDRiPb4tRCJ2dRm6-29">
          <mxGeometry relative="1" as="geometry">
            <mxPoint x="775" y="243" as="sourcePoint" />
            <mxPoint x="927" y="243" as="targetPoint" />
          </mxGeometry>
        </mxCell>
        <mxCell id="uzLKEDRiPb4tRCJ2dRm6-33" value="" style="edgeStyle=elbowEdgeStyle;fontSize=12;html=1;endFill=0;startFill=0;endSize=6;startSize=6;dashed=1;dashPattern=1 4;endArrow=none;startArrow=none;rounded=0;exitX=0.5;exitY=0;exitDx=0;exitDy=0;exitPerimeter=0;" edge="1" parent="xB0domjlbj_kg_IO6vz--4" source="uzLKEDRiPb4tRCJ2dRm6-34">
          <mxGeometry width="160" relative="1" as="geometry">
            <mxPoint x="716" y="126" as="sourcePoint" />
            <mxPoint x="702" y="126" as="targetPoint" />
            <Array as="points" />
          </mxGeometry>
        </mxCell>
        <mxCell id="uzLKEDRiPb4tRCJ2dRm6-35" value="" style="edgeStyle=elbowEdgeStyle;fontSize=12;html=1;endFill=0;startFill=0;endSize=6;startSize=6;dashed=1;dashPattern=1 4;endArrow=none;startArrow=none;rounded=0;exitX=0.5;exitY=0;exitDx=0;exitDy=0;exitPerimeter=0;entryX=0;entryY=0.5;entryDx=0;entryDy=0;entryPerimeter=0;" edge="1" parent="xB0domjlbj_kg_IO6vz--4" source="uzLKEDRiPb4tRCJ2dRm6-29" target="uzLKEDRiPb4tRCJ2dRm6-34">
          <mxGeometry width="160" relative="1" as="geometry">
            <mxPoint x="842" y="218" as="sourcePoint" />
            <mxPoint x="842" y="196" as="targetPoint" />
            <Array as="points" />
          </mxGeometry>
        </mxCell>
        <mxCell id="uzLKEDRiPb4tRCJ2dRm6-34" value="" style="html=1;shape=mxgraph.flowchart.annotation_2;align=left;labelPosition=right;rotation=-90;" vertex="1" parent="xB0domjlbj_kg_IO6vz--4">
          <mxGeometry x="697" y="92.64" width="10" height="60" as="geometry" />
        </mxCell>
        <mxCell id="uzLKEDRiPb4tRCJ2dRm6-36" value="Сообщение об отсутствии курьеров?" style="text;html=1;strokeColor=none;fillColor=none;align=center;verticalAlign=middle;whiteSpace=wrap;rounded=0;" vertex="1" parent="xB0domjlbj_kg_IO6vz--4">
          <mxGeometry x="674" y="75" width="60" height="28.24" as="geometry" />
        </mxCell>
        <mxCell id="uzLKEDRiPb4tRCJ2dRm6-38" style="edgeStyle=orthogonalEdgeStyle;rounded=0;orthogonalLoop=1;jettySize=auto;html=1;entryX=0.5;entryY=0;entryDx=0;entryDy=0;entryPerimeter=0;" edge="1" parent="xB0domjlbj_kg_IO6vz--4" source="uzLKEDRiPb4tRCJ2dRm6-29" target="uzLKEDRiPb4tRCJ2dRm6-37">
          <mxGeometry relative="1" as="geometry" />
        </mxCell>
        <mxCell id="uzLKEDRiPb4tRCJ2dRm6-39" value="" style="edgeStyle=elbowEdgeStyle;fontSize=12;html=1;endFill=0;startFill=0;endSize=6;startSize=6;dashed=1;dashPattern=1 4;endArrow=none;startArrow=none;rounded=0;" edge="1" parent="xB0domjlbj_kg_IO6vz--4" source="uzLKEDRiPb4tRCJ2dRm6-37">
          <mxGeometry width="160" relative="1" as="geometry">
            <mxPoint x="677" y="269.40999999999997" as="sourcePoint" />
            <mxPoint x="626" y="269.40999999999997" as="targetPoint" />
            <Array as="points" />
          </mxGeometry>
        </mxCell>
        <mxCell id="uzLKEDRiPb4tRCJ2dRm6-40" value="" style="html=1;shape=mxgraph.flowchart.annotation_2;align=left;labelPosition=right;rotation=-180;" vertex="1" parent="xB0domjlbj_kg_IO6vz--4">
          <mxGeometry x="610" y="248.5" width="10" height="42" as="geometry" />
        </mxCell>
        <mxCell id="uzLKEDRiPb4tRCJ2dRm6-41" value="Закрыть ли заказ?" style="text;html=1;strokeColor=none;fillColor=none;align=center;verticalAlign=middle;whiteSpace=wrap;rounded=0;" vertex="1" parent="xB0domjlbj_kg_IO6vz--4">
          <mxGeometry x="537" y="253" width="60" height="28.24" as="geometry" />
        </mxCell>
        <mxCell id="uzLKEDRiPb4tRCJ2dRm6-43" value="Закрытие заказа" style="points=[[0.25,0,0],[0.5,0,0],[0.75,0,0],[1,0.25,0],[1,0.5,0],[1,0.75,0],[0.75,1,0],[0.5,1,0],[0.25,1,0],[0,0.75,0],[0,0.5,0],[0,0.25,0]];shape=mxgraph.bpmn.task2;whiteSpace=wrap;rectStyle=rounded;size=10;html=1;container=1;expand=0;collapsible=0;taskMarker=abstract;" vertex="1" parent="xB0domjlbj_kg_IO6vz--4">
          <mxGeometry x="433" y="290" width="70" height="46.5" as="geometry" />
        </mxCell>
        <mxCell id="uzLKEDRiPb4tRCJ2dRm6-48" style="edgeStyle=orthogonalEdgeStyle;rounded=0;orthogonalLoop=1;jettySize=auto;html=1;entryX=0.5;entryY=0;entryDx=0;entryDy=0;entryPerimeter=0;" edge="1" parent="xB0domjlbj_kg_IO6vz--4" source="uzLKEDRiPb4tRCJ2dRm6-37" target="uzLKEDRiPb4tRCJ2dRm6-49">
          <mxGeometry relative="1" as="geometry">
            <mxPoint x="718" y="296" as="targetPoint" />
            <Array as="points">
              <mxPoint x="723" y="270" />
            </Array>
          </mxGeometry>
        </mxCell>
        <mxCell id="uzLKEDRiPb4tRCJ2dRm6-37" value="" style="points=[[0.25,0.25,0],[0.5,0,0],[0.75,0.25,0],[1,0.5,0],[0.75,0.75,0],[0.5,1,0],[0.25,0.75,0],[0,0.5,0]];shape=mxgraph.bpmn.gateway2;html=1;verticalLabelPosition=bottom;labelBackgroundColor=#ffffff;verticalAlign=top;align=center;perimeter=rhombusPerimeter;outlineConnect=0;outline=none;symbol=none;gwType=exclusive;" vertex="1" parent="xB0domjlbj_kg_IO6vz--4">
          <mxGeometry x="647" y="244.5" width="50" height="50" as="geometry" />
        </mxCell>
        <mxCell id="uzLKEDRiPb4tRCJ2dRm6-45" style="edgeStyle=orthogonalEdgeStyle;rounded=0;orthogonalLoop=1;jettySize=auto;html=1;entryX=1;entryY=0.75;entryDx=0;entryDy=0;entryPerimeter=0;" edge="1" parent="xB0domjlbj_kg_IO6vz--4" source="uzLKEDRiPb4tRCJ2dRm6-37" target="uzLKEDRiPb4tRCJ2dRm6-43">
          <mxGeometry relative="1" as="geometry">
            <Array as="points">
              <mxPoint x="668" y="325" />
            </Array>
          </mxGeometry>
        </mxCell>
        <mxCell id="uzLKEDRiPb4tRCJ2dRm6-46" value="" style="points=[[0.145,0.145,0],[0.5,0,0],[0.855,0.145,0],[1,0.5,0],[0.855,0.855,0],[0.5,1,0],[0.145,0.855,0],[0,0.5,0]];shape=mxgraph.bpmn.event;html=1;verticalLabelPosition=bottom;labelBackgroundColor=#ffffff;verticalAlign=top;align=center;perimeter=ellipsePerimeter;outlineConnect=0;aspect=fixed;outline=end;symbol=terminate2;" vertex="1" parent="xB0domjlbj_kg_IO6vz--4">
          <mxGeometry x="355" y="296.75" width="33" height="33" as="geometry" />
        </mxCell>
        <mxCell id="uzLKEDRiPb4tRCJ2dRm6-47" style="edgeStyle=orthogonalEdgeStyle;rounded=0;orthogonalLoop=1;jettySize=auto;html=1;entryX=1;entryY=0.5;entryDx=0;entryDy=0;entryPerimeter=0;" edge="1" parent="xB0domjlbj_kg_IO6vz--4" source="uzLKEDRiPb4tRCJ2dRm6-43" target="uzLKEDRiPb4tRCJ2dRm6-46">
          <mxGeometry relative="1" as="geometry" />
        </mxCell>
        <mxCell id="uzLKEDRiPb4tRCJ2dRm6-49" value="Ожидание заказа" style="points=[[0.25,0,0],[0.5,0,0],[0.75,0,0],[1,0.25,0],[1,0.5,0],[1,0.75,0],[0.75,1,0],[0.5,1,0],[0.25,1,0],[0,0.75,0],[0,0.5,0],[0,0.25,0]];shape=mxgraph.bpmn.task2;whiteSpace=wrap;rectStyle=rounded;size=10;html=1;container=1;expand=0;collapsible=0;taskMarker=abstract;" vertex="1" parent="xB0domjlbj_kg_IO6vz--4">
          <mxGeometry x="682" y="350" width="84" height="49.5" as="geometry" />
        </mxCell>
        <mxCell id="uzLKEDRiPb4tRCJ2dRm6-53" value="&quot;Сообщение об ожидании заказа&quot;" style="shape=mxgraph.bpmn.data2;labelPosition=center;verticalLabelPosition=bottom;align=center;verticalAlign=top;size=15;html=1;" vertex="1" parent="xB0domjlbj_kg_IO6vz--4">
          <mxGeometry x="994" y="312" width="74" height="35" as="geometry" />
        </mxCell>
        <mxCell id="uzLKEDRiPb4tRCJ2dRm6-118" value="" style="edgeStyle=elbowEdgeStyle;fontSize=12;html=1;endFill=0;startFill=0;endSize=6;startSize=6;dashed=1;dashPattern=1 4;endArrow=none;startArrow=none;rounded=0;" edge="1" parent="xB0domjlbj_kg_IO6vz--4">
          <mxGeometry width="160" relative="1" as="geometry">
            <mxPoint x="454" y="-17" as="sourcePoint" />
            <mxPoint x="454" y="8.819999999999993" as="targetPoint" />
            <Array as="points" />
          </mxGeometry>
        </mxCell>
        <mxCell id="uzLKEDRiPb4tRCJ2dRm6-129" value="" style="edgeStyle=elbowEdgeStyle;fontSize=12;html=1;endFill=0;startFill=0;endSize=6;startSize=6;dashed=1;dashPattern=1 4;endArrow=none;startArrow=none;rounded=0;" edge="1" parent="xB0domjlbj_kg_IO6vz--4">
          <mxGeometry width="160" relative="1" as="geometry">
            <mxPoint x="766" y="379" as="sourcePoint" />
            <mxPoint x="124" y="-691" as="targetPoint" />
            <Array as="points">
              <mxPoint x="1142" y="362" />
            </Array>
          </mxGeometry>
        </mxCell>
        <mxCell id="uzLKEDRiPb4tRCJ2dRm6-131" value="" style="edgeStyle=elbowEdgeStyle;fontSize=12;html=1;endFill=0;startFill=0;endSize=6;startSize=6;dashed=1;dashPattern=1 4;endArrow=none;startArrow=none;rounded=0;" edge="1" parent="xB0domjlbj_kg_IO6vz--4">
          <mxGeometry width="160" relative="1" as="geometry">
            <mxPoint x="1065" y="324" as="sourcePoint" />
            <mxPoint x="1145" y="324" as="targetPoint" />
          </mxGeometry>
        </mxCell>
        <mxCell id="xB0domjlbj_kg_IO6vz--71" value="нет" style="text;html=1;strokeColor=none;fillColor=none;align=center;verticalAlign=middle;whiteSpace=wrap;rounded=0;" parent="1" vertex="1">
          <mxGeometry x="362.5" y="-40" width="40" height="10" as="geometry" />
        </mxCell>
        <mxCell id="QzPdpGsSKlCRJFQtMwpN-2" value="" style="edgeStyle=elbowEdgeStyle;fontSize=12;html=1;endFill=0;startFill=0;endSize=6;startSize=6;dashed=1;dashPattern=1 4;endArrow=openThin;startArrow=none;rounded=0;exitX=0;exitY=0;exitDx=80;exitDy=27.5;exitPerimeter=0;entryX=0.5;entryY=0;entryDx=0;entryDy=0;entryPerimeter=0;" parent="1" source="xB0domjlbj_kg_IO6vz--80" target="zkMpJKOp6QvyCTiO164W-11" edge="1">
          <mxGeometry width="160" relative="1" as="geometry">
            <mxPoint x="590" y="80" as="sourcePoint" />
            <mxPoint x="748" y="204" as="targetPoint" />
            <Array as="points">
              <mxPoint x="753" y="97" />
            </Array>
          </mxGeometry>
        </mxCell>
        <mxCell id="xB0domjlbj_kg_IO6vz--41" value="" style="swimlane;html=1;startSize=20;fontStyle=0;collapsible=0;horizontal=1;swimlaneLine=0;fillColor=none;whiteSpace=wrap;" parent="1" vertex="1">
          <mxGeometry x="160" y="-230" width="1141" height="250" as="geometry" />
        </mxCell>
        <mxCell id="xB0domjlbj_kg_IO6vz--60" value="Сформировать сообщение клиенту" style="points=[[0.25,0,0],[0.5,0,0],[0.75,0,0],[1,0.25,0],[1,0.5,0],[1,0.75,0],[0.75,1,0],[0.5,1,0],[0.25,1,0],[0,0.75,0],[0,0.5,0],[0,0.25,0]];shape=mxgraph.bpmn.task2;whiteSpace=wrap;rectStyle=rounded;size=10;html=1;container=1;expand=0;collapsible=0;taskMarker=abstract;" parent="xB0domjlbj_kg_IO6vz--41" vertex="1">
          <mxGeometry x="167.5" y="180" width="95" height="60" as="geometry" />
        </mxCell>
        <mxCell id="xB0domjlbj_kg_IO6vz--75" value="Прием заказов&lt;div&gt;&lt;br&gt;&lt;/div&gt;" style="text;html=1;strokeColor=none;fillColor=none;align=center;verticalAlign=middle;whiteSpace=wrap;rounded=0;rotation=-90;" parent="xB0domjlbj_kg_IO6vz--41" vertex="1">
          <mxGeometry x="-83.75" y="90" width="197.5" height="30" as="geometry" />
        </mxCell>
        <mxCell id="xB0domjlbj_kg_IO6vz--79" value="" style="edgeStyle=elbowEdgeStyle;fontSize=12;html=1;endFill=0;startFill=0;endSize=6;startSize=6;dashed=1;dashPattern=1 4;endArrow=none;startArrow=none;rounded=0;" parent="xB0domjlbj_kg_IO6vz--41" edge="1">
          <mxGeometry width="160" relative="1" as="geometry">
            <mxPoint x="262.5" y="209.57999999999998" as="sourcePoint" />
            <mxPoint x="460" y="210" as="targetPoint" />
          </mxGeometry>
        </mxCell>
        <mxCell id="xB0domjlbj_kg_IO6vz--80" value="&quot;Сообщение об отсутствии продуктов&quot;" style="shape=mxgraph.bpmn.data2;labelPosition=center;verticalLabelPosition=bottom;align=center;verticalAlign=top;size=15;html=1;" parent="xB0domjlbj_kg_IO6vz--41" vertex="1">
          <mxGeometry x="450" y="180" width="80" height="40" as="geometry" />
        </mxCell>
        <mxCell id="xB0domjlbj_kg_IO6vz--64" value="все ли продукты есть?" style="text;html=1;strokeColor=none;fillColor=none;align=center;verticalAlign=middle;whiteSpace=wrap;rounded=0;" parent="xB0domjlbj_kg_IO6vz--41" vertex="1">
          <mxGeometry x="240" width="100" height="30" as="geometry" />
        </mxCell>
        <mxCell id="xB0domjlbj_kg_IO6vz--63" value="" style="html=1;shape=mxgraph.flowchart.annotation_2;align=left;labelPosition=right;" parent="xB0domjlbj_kg_IO6vz--41" vertex="1">
          <mxGeometry x="235" width="5" height="30" as="geometry" />
        </mxCell>
        <mxCell id="zkMpJKOp6QvyCTiO164W-4" value="" style="points=[[0.145,0.145,0],[0.5,0,0],[0.855,0.145,0],[1,0.5,0],[0.855,0.855,0],[0.5,1,0],[0.145,0.855,0],[0,0.5,0]];shape=mxgraph.bpmn.event;html=1;verticalLabelPosition=bottom;labelBackgroundColor=#ffffff;verticalAlign=top;align=center;perimeter=ellipsePerimeter;outlineConnect=0;aspect=fixed;outline=standard;symbol=message;" parent="xB0domjlbj_kg_IO6vz--41" vertex="1">
          <mxGeometry x="40" y="85" width="50" height="50" as="geometry" />
        </mxCell>
        <mxCell id="zkMpJKOp6QvyCTiO164W-6" value="Пришел заказ" style="text;html=1;strokeColor=none;fillColor=none;align=center;verticalAlign=middle;whiteSpace=wrap;rounded=0;" parent="xB0domjlbj_kg_IO6vz--41" vertex="1">
          <mxGeometry x="25" y="140" width="80" height="30" as="geometry" />
        </mxCell>
        <mxCell id="zkMpJKOp6QvyCTiO164W-7" value="Принять заказ и проверить на наличие&amp;nbsp;" style="points=[[0.25,0,0],[0.5,0,0],[0.75,0,0],[1,0.25,0],[1,0.5,0],[1,0.75,0],[0.75,1,0],[0.5,1,0],[0.25,1,0],[0,0.75,0],[0,0.5,0],[0,0.25,0]];shape=mxgraph.bpmn.task2;whiteSpace=wrap;rectStyle=rounded;size=10;html=1;container=1;expand=0;collapsible=0;taskMarker=abstract;" parent="xB0domjlbj_kg_IO6vz--41" vertex="1">
          <mxGeometry x="110" y="70" width="57.5" height="80" as="geometry" />
        </mxCell>
        <mxCell id="zkMpJKOp6QvyCTiO164W-8" value="" style="edgeStyle=none;curved=1;rounded=0;orthogonalLoop=1;jettySize=auto;html=1;fontSize=12;startSize=8;endSize=8;entryX=0;entryY=0.5;entryDx=0;entryDy=0;entryPerimeter=0;" parent="xB0domjlbj_kg_IO6vz--41" source="zkMpJKOp6QvyCTiO164W-4" target="zkMpJKOp6QvyCTiO164W-7" edge="1">
          <mxGeometry relative="1" as="geometry" />
        </mxCell>
        <mxCell id="xB0domjlbj_kg_IO6vz--61" value="" style="points=[[0.25,0.25,0],[0.5,0,0],[0.75,0.25,0],[1,0.5,0],[0.75,0.75,0],[0.5,1,0],[0.25,0.75,0],[0,0.5,0]];shape=mxgraph.bpmn.gateway2;html=1;verticalLabelPosition=bottom;labelBackgroundColor=#ffffff;verticalAlign=top;align=center;perimeter=rhombusPerimeter;outlineConnect=0;outline=none;symbol=none;gwType=exclusive;" parent="xB0domjlbj_kg_IO6vz--41" vertex="1">
          <mxGeometry x="190" y="85" width="50" height="50" as="geometry" />
        </mxCell>
        <mxCell id="xB0domjlbj_kg_IO6vz--62" value="" style="edgeStyle=elbowEdgeStyle;fontSize=12;html=1;endFill=0;startFill=0;endSize=6;startSize=6;dashed=1;dashPattern=1 4;endArrow=none;startArrow=none;rounded=0;exitX=0.5;exitY=0;exitDx=0;exitDy=0;exitPerimeter=0;entryX=0;entryY=0.5;entryDx=0;entryDy=0;entryPerimeter=0;" parent="xB0domjlbj_kg_IO6vz--41" source="xB0domjlbj_kg_IO6vz--61" target="xB0domjlbj_kg_IO6vz--63" edge="1">
          <mxGeometry width="160" relative="1" as="geometry">
            <mxPoint x="200" y="140" as="sourcePoint" />
            <mxPoint x="230" y="90" as="targetPoint" />
            <Array as="points">
              <mxPoint x="215" y="120" />
            </Array>
          </mxGeometry>
        </mxCell>
        <mxCell id="xB0domjlbj_kg_IO6vz--67" value="" style="edgeStyle=elbowEdgeStyle;fontSize=12;html=1;endArrow=blockThin;endFill=1;rounded=0;entryX=0;entryY=0.5;entryDx=0;entryDy=0;entryPerimeter=0;exitX=1;exitY=0.5;exitDx=0;exitDy=0;exitPerimeter=0;" parent="xB0domjlbj_kg_IO6vz--41" source="zkMpJKOp6QvyCTiO164W-7" target="xB0domjlbj_kg_IO6vz--61" edge="1">
          <mxGeometry width="160" relative="1" as="geometry">
            <mxPoint x="140" y="210" as="sourcePoint" />
            <mxPoint x="500" y="190" as="targetPoint" />
          </mxGeometry>
        </mxCell>
        <mxCell id="xB0domjlbj_kg_IO6vz--69" value="" style="edgeStyle=elbowEdgeStyle;fontSize=12;html=1;endArrow=blockThin;endFill=1;rounded=0;entryX=0.5;entryY=0;entryDx=0;entryDy=0;entryPerimeter=0;exitX=0.5;exitY=1;exitDx=0;exitDy=0;exitPerimeter=0;" parent="xB0domjlbj_kg_IO6vz--41" source="xB0domjlbj_kg_IO6vz--61" target="xB0domjlbj_kg_IO6vz--60" edge="1">
          <mxGeometry width="160" relative="1" as="geometry">
            <mxPoint x="210" y="190" as="sourcePoint" />
            <mxPoint x="490" y="190" as="targetPoint" />
          </mxGeometry>
        </mxCell>
        <mxCell id="xB0domjlbj_kg_IO6vz--68" value="" style="edgeStyle=elbowEdgeStyle;fontSize=12;html=1;endArrow=blockThin;endFill=1;rounded=0;entryX=1;entryY=0.5;entryDx=0;entryDy=0;entryPerimeter=0;exitX=1;exitY=0.5;exitDx=0;exitDy=0;exitPerimeter=0;" parent="1" source="xB0domjlbj_kg_IO6vz--61" target="xB0domjlbj_kg_IO6vz--72" edge="1">
          <mxGeometry width="160" relative="1" as="geometry">
            <mxPoint x="400" y="-65" as="sourcePoint" />
            <mxPoint x="450" y="-315" as="targetPoint" />
            <Array as="points">
              <mxPoint x="600" y="-160" />
            </Array>
          </mxGeometry>
        </mxCell>
        <mxCell id="uzLKEDRiPb4tRCJ2dRm6-17" value="" style="edgeStyle=elbowEdgeStyle;fontSize=12;html=1;endFill=0;startFill=0;endSize=6;startSize=6;dashed=1;dashPattern=1 4;endArrow=none;startArrow=none;rounded=0;entryX=0.5;entryY=1;entryDx=0;entryDy=0;entryPerimeter=0;" edge="1" parent="1" target="uzLKEDRiPb4tRCJ2dRm6-13">
          <mxGeometry width="160" relative="1" as="geometry">
            <mxPoint x="749" y="-364" as="sourcePoint" />
            <mxPoint x="946" y="-476" as="targetPoint" />
            <Array as="points">
              <mxPoint x="611" y="-415" />
            </Array>
          </mxGeometry>
        </mxCell>
        <mxCell id="uzLKEDRiPb4tRCJ2dRm6-116" value="" style="edgeStyle=elbowEdgeStyle;fontSize=12;html=1;endFill=0;startFill=0;endSize=6;startSize=6;dashed=1;dashPattern=1 4;endArrow=none;startArrow=none;rounded=0;curved=1;" edge="1" parent="1">
          <mxGeometry width="160" relative="1" as="geometry">
            <mxPoint x="694" y="52" as="sourcePoint" />
            <mxPoint x="694" y="91" as="targetPoint" />
          </mxGeometry>
        </mxCell>
        <mxCell id="uzLKEDRiPb4tRCJ2dRm6-120" value="" style="html=1;shape=mxgraph.flowchart.annotation_2;align=left;labelPosition=right;rotation=-90;" vertex="1" parent="1">
          <mxGeometry x="614" y="-701" width="10" height="60" as="geometry" />
        </mxCell>
        <mxCell id="uzLKEDRiPb4tRCJ2dRm6-123" value="Нашелся ли курьер до истечения таймера?" style="text;html=1;strokeColor=none;fillColor=none;align=center;verticalAlign=middle;whiteSpace=wrap;rounded=0;" vertex="1" parent="1">
          <mxGeometry x="589" y="-732" width="60" height="28.24" as="geometry" />
        </mxCell>
        <mxCell id="uzLKEDRiPb4tRCJ2dRm6-133" style="edgeStyle=orthogonalEdgeStyle;rounded=0;orthogonalLoop=1;jettySize=auto;html=1;exitX=1;exitY=1;exitDx=0;exitDy=0;exitPerimeter=0;entryX=0.5;entryY=1;entryDx=0;entryDy=0;entryPerimeter=0;" edge="1" parent="1" source="uzLKEDRiPb4tRCJ2dRm6-120" target="uzLKEDRiPb4tRCJ2dRm6-120">
          <mxGeometry relative="1" as="geometry" />
        </mxCell>
      </root>
    </mxGraphModel>
  </diagram>
</mxfile>
